
<global>
amp_veltrack=0.0
ampeg_release=0.35
xfin_hicc1=24
xfout_hicc1=127
xfout_locc1=127
</global>

<group>
group_label=PP
lpc_hicc1=42
lpc_locc1=0

<region>
hikey=a#4
hivel=127
lokey=a4
loop_end=276339
loop_mode=loop_continuous
loop_start=104796
loop_xfade=20786
lovel=1
lpc=vC4IQiWinMKCO1tCmt8UweK/AkDHWhdAIaEfwHdszMB3T8RA9WPvwC4yzkBtQoTA9w0JQX4HvsCy+fs/ILcswMfamb+3YGdAqFuPvrAl5r8fahdATieyPkKIWsB/2hNA
lpc_rms=-26.47
offset=1334
pitch_keycenter=a#4
sample=Flute_trill_semitone_PP_A#4.opus
</region>

<region>
hikey=a#5
hivel=127
lokey=a5
loop_end=271229
loop_mode=loop_continuous
loop_start=102858
loop_xfade=20402
lovel=1
lpc=1TQKQo5AasJNQvVBf9SswOPttUACehXAAarMQESn5sDMOOY/B/tQwMMG2UCGnWvAiVjzQJ3ircBFrDdAkqiuwC+/tT8kJ7ZAwwMdQKVFbcBTfya/T39kP4KPn8B62YlA
lpc_rms=-21.28
offset=369
pitch_keycenter=a#5
sample=Flute_trill_semitone_PP_A#5.opus
</region>

<region>
hikey=a#6
hivel=127
lokey=a6
loop_end=276622
loop_mode=loop_continuous
loop_start=104903
loop_xfade=20807
lovel=1
lpc=gMKXQdUtPcEnHSE/FkSSQDFB4r8xMStAYAIFQcENFj+2mUPAfidIQLv0FkAswFfA2bcPwTvObr9bQ6dA0tE3wF/fHj/Zr+a/PcWkwNdVacDFKERADcBAv/VUJ8AEj/8/
lpc_rms=-9.94
offset=10589
pitch_keycenter=A#6
sample=Flute_trill_semitone_PP_A#6.opus
</region>

<region>
hikey=c5
hivel=127
lokey=b4
loop_end=275828
loop_mode=loop_continuous
loop_start=104602
loop_xfade=20747
lovel=1
lpc=gyrcQSytdMJQECBCqPFUwJrItz5uxM0+9wDev66qlMB28qVANEi2wAWyx0D8JYzAgAPAQKkDgMAiIBs/+c9tv7BepT/SE8G//e68P82LOb+RDxpABO7Rv35mwr9i0N8/
lpc_rms=-28.75
offset=8828
pitch_keycenter=c5
sample=Flute_trill_semitone_PP_C5.opus
</region>

<region>
hikey=c6
hivel=127
lokey=b5
loop_end=267228
loop_mode=loop_continuous
loop_start=101341
loop_xfade=20101
lovel=1
lpc=liWlQbJd4MGcGshAgAZYQN/hpD/6T2k/lwCOv3CrjL+5SFE/3D3qPqTGaj8/gI2+3FSfP+czqr/zNBk/C3/mPuHgZ76ICbA/cWbcu2QmEz8svB7AfdYmwG+TXT++tTtA
lpc_rms=-23.38
offset=1217
pitch_keycenter=c6
sample=Flute_trill_semitone_PP_C6.opus
</region>

<region>
hivel=127
key=d4
loop_end=272687
loop_mode=loop_continuous
loop_start=103411
loop_xfade=20511
lovel=1
lpc=hDReQr2qAsMGObRCsIxEwUed6UAYo/nAJkimvcnq68CIMGtAjffHP5oltr4HlhNApj+Gvzxgsz6oab29uIApvtmRaMB42gRA5sZDQKhtCj+7zRHAN1hwP6HC48D4g8RA
lpc_rms=-29.90
offset=3008
sample=Flute_trill_semitone_PP_D4.opus
</region>

<region>
hikey=d5
hivel=127
lokey=c#5
loop_end=271368
loop_mode=loop_continuous
loop_start=102911
loop_xfade=20412
lovel=1
lpc=Z8o1QgHBv8KXp4RCEN2swUvBfUEAAM3A2ey2QBVaKsFgAa5ACEjXwGhprEBU+UC/D58EQdRECsETypxAS3T+wNsAEUDoAqhAUxY/QA8qbMC4zoQ/YCx5v9Ps1sCYofVA
lpc_rms=-22.61
offset=1835
pitch_keycenter=d5
sample=Flute_trill_semitone_PP_D5.opus
</region>

<region>
hikey=d6
hivel=127
lokey=c#6
loop_end=276708
loop_mode=loop_continuous
loop_start=104936
loop_xfade=20814
lovel=1
lpc=JDDFQV4eocGH76JA4vPlv/Hm5D8Kc4FAaEK8QPo4E8AREL1AHr0YvobA6kCYgbk+hDGsPzgXPUCYvkNAo0WSQEXKEEA01CJAgU7CPkPzQMC7pInAZf4CQUGSlkC0rXs/
lpc_rms=-18.01
offset=960
pitch_keycenter=d6
sample=Flute_trill_semitone_PP_D6.opus
</region>

<region>
hikey=e4
hivel=127
lokey=d#4
loop_end=267745
loop_mode=loop_continuous
loop_start=101537
loop_xfade=20139
lovel=1
lpc=QENXQvuN6cL6IZFCrXdowXePk0GD9EPB2otqQCujCcGmj5ZAhVCRwEx37z5pEBBB8b2XwHCePb8T4EQ/8ByuwKM18UC45jLA6Ft1P2/NVMAK605AHX37PSorDsDwtN4/
lpc_rms=-26.67
offset=1864
pitch_keycenter=e4
sample=Flute_trill_semitone_PP_E4.opus
</region>

<region>
hikey=e5
hivel=127
lokey=d#5
loop_end=285911
loop_mode=loop_continuous
loop_start=108426
loop_xfade=21506
lovel=1
lpc=wJf8QfIKeMJvVyVCt4QnwRLtObvGTgVBY6T4vvJZDcGINMRAM6ndwPnQ8kAYjRC/gHAxQJV9osD7iP4/VrqUwNh/AUEG8Ii/pZLFP1IQhcBHoyk/wu2mPiqECD/ETwtA
lpc_rms=-23.98
offset=5856
pitch_keycenter=e5
sample=Flute_trill_semitone_PP_E5.opus
</region>

<region>
hikey=e6
hivel=127
lokey=d#6
loop_end=276133
loop_mode=loop_continuous
loop_start=104718
loop_xfade=20770
lovel=1
lpc=y5kZQsAp+cHgJFvBmVAZQXvIpEBRdJFAOjOoQIPi1MCzwPFAs5GPwNlGmUAZ4CnAML8DQInRMsAgdq9AIsJcwB7aaEAQlYnBZSi6wLx0kEGO2QZBppPmwHlEiMDuBovA
lpc_rms=-17.96
offset=2620
pitch_keycenter=e6
sample=Flute_trill_semitone_PP_E6.opus
</region>

<region>
hikey=f#4
hivel=127
lokey=f4
loop_end=274918
loop_mode=loop_continuous
loop_start=104257
loop_xfade=20679
lovel=1
lpc=tVZ7QjY7IcPHygJDqhrxwRDIsEA+x2zAsMmLPhAKbMG41V5BE5AgwRKjPUHuzWPAenx5vqUYKMC4qJNAYFq5wPgTu77CEZFADCuHPwlgDcDACBdAfNeWwBVpMz9ZueQ/
lpc_rms=-23.90
offset=2211
pitch_keycenter=f#4
sample=Flute_trill_semitone_PP_F#4.opus
</region>

<region>
hikey=f#5
hivel=127
lokey=f5
loop_end=270976
loop_mode=loop_continuous
loop_start=102762
loop_xfade=20382
lovel=1
lpc=hXUxQrQTr8JG9VFC+PnPwD7+pkCmwb3A6TW4QIg2IMHuTTxBnhlWwcloJ0FuPI/A6Cq+QCfvqcC1Y7RASDoNwTrjAkG/pLO/VGSrvmwVg8AmR1NApgTTv9c6KEHZMgfB
lpc_rms=-22.41
offset=5188
pitch_keycenter=f#5
sample=Flute_trill_semitone_PP_F#5.opus
</region>

<region>
hikey=f#6
hivel=127
lokey=f6
loop_end=273852
loop_mode=loop_continuous
loop_start=103853
loop_xfade=20599
lovel=1
lpc=ToiZQUEwTMHUYWPAKYY5QGxpqz86no9A6DEVQH5S/72k+5JAwcBSwCukRUDDMus+14H9P+m6XD/RDng+ZechwZ8rvr39Og9BD99NP8VriL/KK0HArMqdv2u0vb4QpIa/
lpc_rms=-22.75
offset=1090
pitch_keycenter=f#6
sample=Flute_trill_semitone_PP_F#6.opus
</region>

<region>
hikey=g#4
hivel=127
lokey=g4
loop_end=267413
loop_mode=loop_continuous
loop_start=101411
loop_xfade=20114
lovel=1
lpc=6AZHQoIz58KS661Ct5y9wZFnlUBtDklAXebOP9r6MMEYU9hAh9QfwZiEPEHWc4zAE2GuQPTzncBNbJM/kwhgwP6lpz8TUABAabo9QHPttMD/4ZBAdLi1vvu0usDl2ZNA
lpc_rms=-26.32
offset=2695
pitch_keycenter=g#4
sample=Flute_trill_semitone_PP_G#4.opus
</region>

<region>
hikey=g#5
hivel=127
lokey=g5
loop_end=273445
loop_mode=loop_continuous
loop_start=103698
loop_xfade=20568
lovel=1
lpc=skArQlsUocJCLC1C/TvCv6/Ppj6WSfJA0aMowQD3UEDiIVTAExCuP12dFEDOmSfALssRQYMpF8FGyc9A9Xu9wL5zoUDEVsPASdHNQBdcXsAjyvpAhTbfwHUpvj/IeaC/
lpc_rms=-20.08
offset=6139
pitch_keycenter=g#5
sample=Flute_trill_semitone_PP_G#5.opus
</region>

<region>
hikey=g#6
hivel=127
lokey=g6
loop_end=267459
loop_mode=loop_continuous
loop_start=101428
loop_xfade=20118
lovel=1
lpc=XIUmQiKD1MFUjSTBHAGmQEexlkC0qjVBJL7zQAjdAMDYbRVBAPoHwUUHx0ClBwLA08wrQQDIGsFEWKPB4AMwQXO8kEF9SKa/jGMbwLmCAcFvKMvAohMeP/ABF0DgxBNA
lpc_rms=-15.16
offset=6453
pitch_keycenter=g#6
sample=Flute_trill_semitone_PP_G#6.opus
</region>
</group>

<group>
group_label=MP
lpc_hicc1=84
lpc_locc1=43

<region>
hikey=a#4
hivel=127
lokey=a4
loop_end=270931
loop_mode=loop_continuous
loop_start=102745
loop_xfade=20379
lovel=1
lpc=pFvfQTI9mMI+zZdCpJIUwuHZpEEjIFPBT7lwQGXxz8C4IQNB44m0wFtn4UBksQHBINYbQdTr4MA/O52/VpgeQPEVFkBKBLnAwqwqQW08NMEaAQ9Ah+eqQMg6lMDSHLg/
lpc_rms=-18.37
pitch_keycenter=a#4
sample=Flute_trill_semitone_MF_A#4.opus
</region>

<region>
hikey=a#5
hivel=127
lokey=a5
loop_end=269764
loop_mode=loop_continuous
loop_start=102302
loop_xfade=20291
lovel=1
lpc=463cQamzNsK0XAdCi6uJwUlZpkC0lQ9BBQjLwHrfeUCXcMG/6nFBwOV9C0DeCOs/h7YgQcMJKcHhFw9AACf1v06NrkBf10TA8t/gQCN6nb+ExY7AIQRNQDZHI8Cgt54/
lpc_rms=-15.17
pitch_keycenter=a#5
sample=Flute_trill_semitone_MF_A#5.opus
</region>

<region>
hikey=a#6
hivel=127
lokey=a6
loop_end=276622
loop_mode=loop_continuous
loop_start=104903
loop_xfade=20807
lovel=1
lpc=gMKXQdUtPcEnHSE/FkSSQDFB4r8xMStAYAIFQcENFj+2mUPAfidIQLv0FkAswFfA2bcPwTvObr9bQ6dA0tE3wF/fHj/Zr+a/PcWkwNdVacDFKERADcBAv/VUJ8AEj/8/
lpc_rms=-9.94
offset=9678
pitch_keycenter=A#6
sample=Flute_trill_semitone_MF_A#6.opus
</region>

<region>
hikey=c5
hivel=127
lokey=b4
loop_end=277564
loop_mode=loop_continuous
loop_start=105260
loop_xfade=20878
lovel=1
lpc=jQHNQRKWgsKYh3JCfGjRwekLKkG8147A0J/tvsalfMAZc/BA5cyNwMnQMUBjcQHAdm0fP+A6rz/NJ02/z/1YwCBUkEDu+1bAeT6yQC3zvcCg1nNANMdzvxS0NsC4iStA
lpc_rms=-18.07
pitch_keycenter=c5
sample=Flute_trill_semitone_MF_C5.opus
</region>

<region>
hikey=c6
hivel=127
lokey=b5
loop_end=275251
loop_mode=loop_continuous
loop_start=104383
loop_xfade=20704
lovel=1
lpc=5LDXQUsbA8J3b3JBd4CswOs80j8jebVA9SosPvG1KT/FBbU/oyGPv+cspkCz0pdA5/sdvq1XBcDNaYtAnO+Jv4gLVkAkePc/cwfqP7ClAr8CQnU/DhWPv2PrzMAeIzRB
lpc_rms=-15.10
pitch_keycenter=c6
sample=Flute_trill_semitone_MF_C6.opus
</region>

<region>
hivel=127
key=d4
loop_end=272248
loop_mode=loop_continuous
loop_start=103244
loop_xfade=20478
lovel=1
lpc=TuA0Qqw4+sKdUwNDQm+QwlbL3UFTGK0/xz8ewb9D27+MTmlAu0zFv3Q8KT9K5t8/fAmfQMo+GsE/3rFAzfzIv9h/vzo0Bl28JtCFP6pbKj+RlmTA3oWpQDVUy8C3CVRA
lpc_rms=-22.37
sample=Flute_trill_semitone_MF_D4.opus
</region>

<region>
hikey=d5
hivel=127
lokey=c#5
loop_end=271379
loop_mode=loop_continuous
loop_start=102915
loop_xfade=20413
lovel=1
lpc=yaP1QRnChsK9sUxCAhicwW7iZEE8AhfBr5XUQFKfLMFO5SJBEbcDwQ/VAkGB1gjB89gtQbJzCcH5FoFAzborwIniaT7SNQZAvBU8QEjrBMCnM5i//P27PqIUKMCYRV5A
lpc_rms=-22.08
pitch_keycenter=d5
sample=Flute_trill_semitone_MF_D5.opus
</region>

<region>
hikey=d6
hivel=127
lokey=c#6
loop_end=280451
loop_mode=loop_continuous
loop_start=106355
loop_xfade=21095
lovel=1
lpc=acGXQcYJV8FiClG+WZ+JQEV4vr/cGIFAz5LzP0xWvD92jktAwOH6PtrS0UBMPbe/8e9NQJZWBEDDt1tAdAfhP3jqGkDVUwc/e8l0QIZIc8B3dGHAnqecQBC5tkBsB9A+
lpc_rms=-16.34
pitch_keycenter=d6
sample=Flute_trill_semitone_MF_D6.opus
</region>

<region>
hikey=e4
hivel=127
lokey=d#4
loop_end=266242
loop_mode=loop_continuous
loop_start=100967
loop_xfade=20026
lovel=1
lpc=vCr6QQCesMJbm8FCb/Vewq1tlUE2HgNBlMmIwdRTrUCII9I/402QwNFKHUFI2hjBDFgrQZBBVcGuVyRBOnkRwQvPG0GpaM7A7p6SQFbLVsB4KdU/zOIFwBmxsj9vNQq9
lpc_rms=-20.95
pitch_keycenter=e4
sample=Flute_trill_semitone_MF_E4.opus
</region>

<region>
hikey=e5
hivel=127
lokey=d#5
loop_end=275746
loop_mode=loop_continuous
loop_start=104571
loop_xfade=20741
lovel=1
lpc=TkEkQrFircJWppFC+pMVwirRqkEVSvfAd0YjQB2IPsBEWIlAPy6dwHfi6UA/hxTBYDcxQbUsEMGZCXhA4HeAv/ZkwUAtQue/4o2hPyAg3MCdZ4NAdfUFQKSxScCyboBA
lpc_rms=-15.95
pitch_keycenter=e5
sample=Flute_trill_semitone_MF_E5.opus
</region>

<region>
hikey=e6
hivel=127
lokey=d#6
loop_end=278920
loop_mode=loop_continuous
loop_start=105775
loop_xfade=20980
lovel=1
lpc=Oc0PQvuxEMJOJihBtgy7v4f2zz8cv+hAn3gVP83hrT2QktNA0V4Wv0YEBkCKLpu8FxiEQCOASMAgG+NAN5KawH3tIkFg3cfBX2j3QNHsPUEALYjA+A91QIThzr/OC5/A
lpc_rms=-9.91
pitch_keycenter=e6
sample=Flute_trill_semitone_MF_E6.opus
</region>

<region>
hikey=f#4
hivel=127
lokey=f4
loop_end=273380
loop_mode=loop_continuous
loop_start=103673
loop_xfade=20563
lovel=1
lpc=bSofQiyl5cIQdvdCd4WHwtTWFUJ7ucDBUg/6QJoxNsH5R4dBTsxEwUHkJUFCTBLBIPMwQcv2N8FkNLBAscpIwHmtzz/tM09AVGwOwLfrvr9+hcM/Yq1Rv+q8G77FZg4/
lpc_rms=-19.34
pitch_keycenter=f#4
sample=Flute_trill_semitone_MF_F#4.opus
</region>

<region>
hikey=f#5
hivel=127
lokey=f5
loop_end=279029
loop_mode=loop_continuous
loop_start=105816
loop_xfade=20988
lovel=2
lpc=W0IxQotMusKj+ZtCvdr8wXTGJEHWoXnASLXRQFQIA8He5jlBK2UVwTFalUDAVb/Af/Q4QQA6N8EU54lBkyBSwRoPWECuZAS/8wzdQDBCFcFKoO5AyiSHwFIi0kAEG/y/
lpc_rms=-14.24
pitch_keycenter=f#5
sample=Flute_trill_semitone_MF_F#5.opus
</region>

<region>
hikey=f#6
hivel=127
lokey=f6
loop_end=277343
loop_mode=loop_continuous
loop_start=105176
loop_xfade=20861
lovel=1
lpc=0HSbQe/jgcFB1flA/ApXPxxllb/8ivc/RehTQILKiEA8Lo5ARe/Ov7VdZ0AwAuq9cqMjQGZ6Jj3IxY5Au7o3waD0Az8TjMNA+FB4wMg+zj8Xa6E/Wrq8v6IqOr8VdpnA
lpc_rms=-12.70
pitch_keycenter=f#6
sample=Flute_trill_semitone_MF_F#6.opus
</region>

<region>
hikey=g#4
hivel=127
lokey=g4
loop_end=272432
loop_mode=loop_continuous
loop_start=103314
loop_xfade=20492
lovel=1
lpc=XvJCQtsODsN43RpDE6qkwkC3BUKeVf/ApY1ywYi2cEFhGy3BgXO+QIBaNkHJblLBFrmeQCAWB8FA2xdBORzuwIfiK0GHFBbBQ05hQDjdl8DjLQ9BjDSQwLYQPsBaSjRA
lpc_rms=-16.19
pitch_keycenter=g#4
sample=Flute_trill_semitone_MF_G#4.opus
</region>

<region>
hikey=g#5
hivel=127
lokey=g5
loop_end=278007
loop_mode=loop_continuous
loop_start=105428
loop_xfade=20911
lovel=1
lpc=epoIQuQKhsIjoFBCwB+7wfLNaUHcxvTAUAliQDzcwb9ujBhAILeVwDrWuUCh5rrAlPo0QUZ7/8CnQYNAlqN/v6E0r8CRfA5BW1XJwH9Q6kBhZ4fA0AS0P2N03j/gcxbA
lpc_rms=-13.26
pitch_keycenter=g#5
sample=Flute_trill_semitone_MF_G#5.opus
</region>

<region>
hikey=g#6
hivel=127
lokey=g6
loop_end=278624
loop_mode=loop_continuous
loop_start=105662
loop_xfade=20958
lovel=1
lpc=JoayQcfnTsEmJqA+d7nIP0Zke0CFCOM+kG6DQAcGoUCgxc8/ytZmPp1cYj6W8vI/ssehP5vPo8BvgjHBoQdrQJYNrkCfIXjAW2GPPr34VcAmgte/uDSiwMu4OD3dDmK/
lpc_rms=-12.85
pitch_keycenter=g#6
sample=Flute_trill_semitone_MF_G#6.opus
</region>
</group>

<group>
group_label=FF
lpc_hicc1=127
lpc_locc1=85

<region>
hikey=a#4
hivel=127
lokey=a4
loop_end=275726
loop_mode=loop_continuous
loop_start=104563
loop_xfade=20740
lovel=1
lpc=VvqlQfBKRsJiSS5CAMGYwZ9R40Df3J4/OYjBwEWcYUC+KCTA9dJdQP44KsC61UFAq8YDwGEBUD8cHwdAQ9HLwPxv00AhfLnADVOyQGPNhcCa3IRAabJLwC4iET2roEw/
lpc_rms=-16.14
pitch_keycenter=a#4
sample=Flute_trill_semitone_FF_A#4.opus
</region>

<region>
hikey=a#5
hivel=127
lokey=a5
loop_end=270590
loop_mode=loop_continuous
loop_start=102616
loop_xfade=20353
lovel=1
lpc=C7iLQYI11sERT4BBXDpvwEDm4r7LVotAqUYTwHJ2vz7BaSY/c+pVv/sb9j86zjjAUnIQQRy8y8A9IwU/2yqaP67fWr/oOS9Aua+XvhGCiT6KOJG+Wpy5PouBxb5FPa2+
lpc_rms=-15.24
pitch_keycenter=a#5
sample=Flute_trill_semitone_FF_A#5.opus
</region>

<region>
hikey=a#6
hivel=127
lokey=a6
loop_end=269361
loop_mode=loop_continuous
loop_start=102150
loop_xfade=20261
lovel=1
lpc=lnAIQu8r4cEGjUtBbdTZQE5vnL81VQ1BIYE9QdV4QEA/k4e/8pstQSb9xkAcpk0/70OJwZgQ5UDDbIdBFq9fwfuUD0EtANa/md3xwBPbCz8xl6NAn0vsvikY6cCalNFA
lpc_rms=-9.10
pitch_keycenter=A#6
sample=Flute_trill_semitone_FF_A#6.opus
</region>

<region>
hikey=c5
hivel=127
lokey=b4
loop_end=276800
loop_mode=loop_continuous
loop_start=104971
loop_xfade=20821
lovel=1
lpc=n1KJQXfyLcLRviNCqEeDwV2x3T+x4FlA5HeDwPHPEED6gdG/qPtbvwWTqUAl0aXA8VhoQAgsYsD/+k9AGVFjwHUwiEATOF7A8poJQDT0t78SgLo/bPPbPzEKq8ANnUtA
lpc_rms=-18.14
pitch_keycenter=c5
sample=Flute_trill_semitone_FF_C5.opus
</region>

<region>
hikey=c6
hivel=127
lokey=b5
loop_end=280273
loop_mode=loop_continuous
loop_start=106287
loop_xfade=21082
lovel=1
lpc=pP1/QXQgqMEseytB+RSBv6hq5D0FeU1AF7YCwIroAUASpZA/84zFPRS0H0ArFKK+hgTtP+NQO77ZL5c/iVa9P+TdkD8B6mg+IfipPkwxnz/72BdAuDfEwFo/lT9qQ3RA
lpc_rms=-13.35
pitch_keycenter=c6
sample=Flute_trill_semitone_FF_C6.opus
</region>

<region>
hivel=127
key=d4
loop_end=276843
loop_mode=loop_continuous
loop_start=104987
loop_xfade=20824
lovel=1
lpc=HY72QZHamsKRHpBCYF8OwhVYHUG3fBpBGCIGwQVoob9pQT8/Nv3ZwAioE0F8CULAvdKYQOPipMAz1BFAmypPwAl5JUAD7BI/bBY8P3PVVcDyKkBApvLfviICLsCoeQNA
lpc_rms=-20.84
sample=Flute_trill_semitone_FF_D4.opus
</region>

<region>
hikey=d5
hivel=127
lokey=c#5
loop_end=271662
loop_mode=loop_continuous
loop_start=103022
loop_xfade=20434
lovel=1
lpc=PKNlQTue7sF7fKpBvczNwAp4FUDu2cU/WnhXwANqgT+8yhK99JrNPjj9Zz8E7gXAd+VBQHdLBsAUfYo/wL5Av/bWsL1uOHA/E0IHv3T4qD+2pZO/3YVJPxAMF8Aq9BlA
lpc_rms=-18.74
offset=5361
pitch_keycenter=d5
sample=Flute_trill_semitone_FF_D5.opus
</region>

<region>
hikey=d6
hivel=127
lokey=c#6
loop_end=278920
loop_mode=loop_continuous
loop_start=105775
loop_xfade=20980
lovel=1
lpc=Zs3KQShY0MF1cTNBI2/BP62DB8DYcwtBfN2zv+UEVEBNnaZAFnExwNZ/3kAnoGw/dAVHQChAED9zOoVASG60P3Z160DARI/AffAMQRviPcFLnNM+BZA2QYFBLsCeros/
lpc_rms=-8.64
pitch_keycenter=d6
sample=Flute_trill_semitone_FF_D6.opus
</region>

<region>
hikey=e4
hivel=127
lokey=d#4
loop_end=280523
loop_mode=loop_continuous
loop_start=106382
loop_xfade=21101
lovel=1
lpc=CGLsQRLNl8JAMoZCGk/EwW0xHUGgXavAwlQ6vl4Rg8CNrvZAvdsCwf3C40AlKWHAby0/QJ08bsBfV5ZAc+y4wMKwqUCoY6HA2URuQGeux7/Jbbg/EIDUvlgPkb9qBiI/
lpc_rms=-18.82
pitch_keycenter=e4
sample=Flute_trill_semitone_FF_E4.opus
</region>

<region>
hikey=e5
hivel=127
lokey=d#5
loop_end=280142
loop_mode=loop_continuous
loop_start=106238
loop_xfade=21072
lovel=1
lpc=vw5cQXWX1cGCSZdB7lWUwLquer8ky01AQIb+v9mlAD15OwVALusNwG393j/ChRHA/wVLQIfSDcAGlpk+hOHfPr7dLkCgJFS/6PiTv65RDMCZoW5ARB7fPiTVTMAAeS1A
lpc_rms=-20.34
pitch_keycenter=e5
sample=Flute_trill_semitone_FF_E5.opus
</region>

<region>
hikey=e6
hivel=127
lokey=d#6
loop_end=280916
loop_mode=loop_continuous
loop_start=106532
loop_xfade=21130
lovel=1
lpc=BJuPQfwYlMH7DCNBOk4RwOMAckDYXKhABIYTwP7XakDw+0xAC+R/QJQJqb7qLnhA4XCCQNlGzD4oRMlAVu4JwKpDnEAr/rrAbUjzP7ykEkE0Z5PA8SmSQPS4ecAKFEhA
lpc_rms=-10.61
offset=2999
pitch_keycenter=e6
sample=Flute_trill_semitone_FF_E6.opus
</region>

<region>
hikey=f#4
hivel=127
lokey=f4
loop_end=274979
loop_mode=loop_continuous
loop_start=104280
loop_xfade=20684
lovel=1
lpc=NLj6QXkfo8KY55ZCpZzxwQ1FMkEJpszA8Neqv9Y8oz8WyV5A7MHVwICoykDq6cLAf+gtQSx2IsED+5hAYwpnwOxYbkCWjQjA3NcEPxbDqr83+B9AlHgAPxdxVcA6h9M/
lpc_rms=-15.33
pitch_keycenter=f#4
sample=Flute_trill_semitone_FF_F#4.opus
</region>

<region>
hikey=f#5
hivel=127
lokey=f5
loop_end=278457
loop_mode=loop_continuous
loop_start=105599
loop_xfade=20945
lovel=1
lpc=spbLQT+ELsLif9lBnq9uwMQOZsARI8NAFrFwwCGmyz9xeGlAZBORwCWCXUA6em7AeOFcQAOrUr5TLKBAEEBgwLr2NkClTErAkpeIPyLUtTzjxyhA7hoRv8rkMz9WqEU/
lpc_rms=-11.89
pitch_keycenter=f#5
sample=Flute_trill_semitone_FF_F#5.opus
</region>

<region>
hikey=f#6
hivel=127
lokey=f6
loop_end=274171
loop_mode=loop_continuous
loop_start=103973
loop_xfade=20623
lovel=1
lpc=1rM2Qq04D8Lh3HBBPqSEwOJC2j76tutA6oLEP6uD6UAhymxBHm0QwTUsSEG2kO/AE9qpQGGlHcASt81AMmLpweqPmz/JUCRBihJawNPtR0C5XUTA+V3IwL0zwT9QHGzB
lpc_rms=-4.30
pitch_keycenter=f#6
sample=Flute_trill_semitone_FF_F#6.opus
</region>

<region>
hikey=g#4
hivel=127
lokey=g4
loop_end=278567
loop_mode=loop_continuous
loop_start=105641
loop_xfade=20953
lovel=1
lpc=MhrGQRzKeMK1mElCF7YVwYsfU7yyicTAP88jQCTYXL7Q4YRAAPQDwWjky0CfLCjAyzFNQPxQIMD8pJpAGjIWwaSz4EAYhKDA2fCeQECjcL8gKeC99VRavyOH0r/Iiug/
lpc_rms=-15.15
pitch_keycenter=g#4
sample=Flute_trill_semitone_FF_G#4.opus
</region>

<region>
hikey=g#5
hivel=127
lokey=g5
loop_end=276909
loop_mode=loop_continuous
loop_start=105012
loop_xfade=20829
lovel=1
lpc=UkbkQbxRM8K7K7NBV3o8P9ihLL//OBJAI4J8wGNGSUBtWPo/nL32vy4F2L7XrQU/TuBpQGylrT9FzMI/BV7PwBWna0BDnxk//N8nQKCVRr+sN6i/9zwtQIDvF0CP7VvA
lpc_rms=-8.94
pitch_keycenter=g#5
sample=Flute_trill_semitone_FF_G#5.opus
</region>

<region>
hikey=g#6
hivel=127
lokey=g6
loop_end=272877
loop_mode=loop_continuous
loop_start=103483
loop_xfade=20525
lovel=1
lpc=KZfJQWgFasGItMNAfN92QGHQaz8Ie6tA+vvcQA1520DN9+FAnVYlQBDyn0COQ35AW/zBQBUqTMDbyyfBWb1EQSKuhj9MphK/FdGHQI/RIcCPWCrAZAsrwF1Jqb4MxI2+
lpc_rms=-11.01
pitch_keycenter=g#6
sample=Flute_trill_semitone_FF_G#6.opus
</region>
</group>